/* XPM */
static const char * ff_xpm[] = {
"16 16 2 1",
" 	c none",
".	c #000000000000",
"                ",
" ..   ...       ",
" ...   ...      ",
" ....   ...     ",
" .....   ...    ",
" ......   ...   ",
" .......   ...  ",
" ........   ... ",
" .......   ...  ",
" ......   ...   ",
" .....   ...    ",
" ....   ...     ",
" ...   ...      ",
" ..   ...       ",
"                ",
"                "};
